<?xml version="1.0" encoding="UTF-8" standalone="no"?>
<!-- Created with Inkscape (http://www.inkscape.org/) -->

<svg
   width="210mm"
   height="297mm"
   viewBox="0 0 210 297"
   version="1.1"
   id="svg5"
   xml:space="preserve"
   sodipodi:docname="scubadrawing.svg"
   inkscape:version="1.2.2 (b0a8486, 2022-12-01)"
   xmlns:inkscape="http://www.inkscape.org/namespaces/inkscape"
   xmlns:sodipodi="http://sodipodi.sourceforge.net/DTD/sodipodi-0.dtd"
   xmlns="http://www.w3.org/2000/svg"
   xmlns:svg="http://www.w3.org/2000/svg"><sodipodi:namedview
     id="namedview7"
     pagecolor="#ffffff"
     bordercolor="#000000"
     borderopacity="0.25"
     inkscape:showpageshadow="2"
     inkscape:pageopacity="0.0"
     inkscape:pagecheckerboard="0"
     inkscape:deskcolor="#d1d1d1"
     inkscape:document-units="mm"
     showgrid="false"
     inkscape:zoom="0.2102413"
     inkscape:cx="392.40625"
     inkscape:cy="563.63806"
     inkscape:window-width="1309"
     inkscape:window-height="771"
     inkscape:window-x="72"
     inkscape:window-y="167"
     inkscape:window-maximized="0"
     inkscape:current-layer="layer1" /><defs
     id="defs2" /><g
     inkscape:groupmode="layer"
     id="layer2"
     inkscape:label="Layer 2"><ellipse
       style="fill:#f1ca72;fill-opacity:1;stroke-width:0.266022"
       id="path11052"
       cx="106.34109"
       cy="110.11652"
       rx="22.023304"
       ry="28.315676" /></g><g
     inkscape:label="Layer 1"
     inkscape:groupmode="layer"
     id="layer1"><path
       style="fill:#000000;fill-opacity:1;stroke-width:1.16016"
       d="M -7.7423217,147.24153 V -2.0791662 H 106.34114 220.42454 V 147.24153 296.56223 H 106.34114 -7.7423217 Z M 124.57708,256.04658 c 28.37878,-6.47741 46.72396,-27.59221 53.32542,-61.37607 2.48551,-12.71997 2.54196,-21.6377 0.16136,-25.48569 -1.09955,-1.77731 -4.05453,-3.59243 -7.60901,-4.6739 l -5.81131,-1.76813 -0.56959,3.53137 c -1.57677,9.77552 -5.13636,22.33884 -8.24182,29.08886 -4.11206,8.93796 -10.19613,18.90692 -11.53891,18.90692 -0.52471,0 0.30442,-1.8226 1.84252,-4.05022 6.78602,-9.82823 12.18848,-24.52204 14.04333,-38.19563 0.54393,-4.00966 0.42364,-4.57915 -0.67883,-3.21402 -2.51446,3.11352 -9.45946,1.11455 -14.48825,-4.17014 -1.84143,-1.93511 -1.83679,-2.0805 0.17267,-5.42418 1.13564,-1.88966 2.3357,-2.86201 2.6668,-2.16081 0.33111,0.7012 2.23484,1.98025 4.23051,2.84232 4.92349,2.1268 6.29261,0.043 2.70191,-4.11225 -2.49153,-2.88327 -2.58599,-2.91015 -0.87034,-0.2479 2.39442,3.71556 1.71704,3.76252 -2.89516,0.20073 -4.03907,-3.11918 -4.65724,-4.51978 -1.52112,-3.44636 1.6035,0.54885 1.83841,0.32341 1.01546,-0.97448 -1.38765,-2.18847 2.49435,-11.78794 5.45592,-13.49148 1.14966,-0.66129 3.23113,-4.18875 4.62548,-7.83883 2.29154,-5.99864 2.53114,-8.16728 2.49313,-22.56401 -0.0553,-20.906296 -3.20764,-31.191446 -9.56035,-31.191446 -2.02055,0 -3.56948,-1.52482 -6.1784,-6.08226 -3.5266,-6.16049 -9.71387,-13.43592 -13.88087,-16.3221 -1.40733,-0.97475 -2.28167,-2.81421 -2.28167,-4.80018 0,-7.11507 -6.77396,-11.08486 -20.83908,-12.21248 -14.654672,-1.17487 -26.416192,3.24398 -27.499192,10.33157 -0.40148,2.62742 -2.55606,5.66586 -7.29851,10.29252 -3.70086,3.61052 -8.29675,9.31597 -10.21306,12.67877 -2.60517,4.5716 -4.15961,6.11416 -6.1612,6.11416 -6.42186,0 -9.61679,10.58189 -9.61782,31.855086 -6.6e-4,13.62403 0.27145,15.97688 2.53273,21.90037 1.3934,3.65008 3.44612,7.17063 4.56161,7.82347 2.69795,1.57896 9.17373,16.1385 9.91145,22.28395 0.50381,4.19697 0.22709,5.19731 -1.95551,7.06913 -3.51753,3.01665 -9.11111,4.02852 -10.98959,1.98798 -2.23745,-2.43046 -2.01187,0.51041 0.99464,12.96736 2.20014,9.11585 5.05529,15.91197 12.39202,29.49675 1.7285,3.20053 1.7263,3.25009 -0.0622,1.39706 -3.08534,-3.1965 -10.63817,-17.84923 -13.37382,-25.94564 -1.41498,-4.18777 -3.20991,-11.18935 -3.98874,-15.55909 -0.77884,-4.3697 -1.581,-8.16081 -1.7826,-8.4247 -0.99174,-1.29806 -11.65145,3.6784 -13.20169,6.16318 -2.36819,3.79581 -2.28942,12.76418 0.22512,25.6327 5.31053,27.17742 18.94171,46.84623 39.12401,56.45313 13.7972,6.56756 34.193772,8.46677 50.632642,4.71461 z m -31.007592,-2.00257 c -17.82287,-2.72703 -31.67402,-11.05815 -41.84323,-25.16767 -3.66476,-5.08476 -7.8866,-12.71602 -9.65967,-17.46046 -3.40297,-9.10588 -7.22729,-26.90845 -7.20224,-33.52706 0.0194,-5.14251 1.36899,-8.09695 3.07001,-6.72096 0.80167,0.6485 1.03126,0.50325 0.61107,-0.38663 -0.6103,-1.29247 6.07637,-5.24988 6.91811,-4.09438 0.18596,0.25525 1.55462,5.24236 3.04147,11.08246 1.48686,5.8401 4.34711,14.50071 6.3561,19.24579 4.41439,10.42636 16.04789,25.88414 23.26384,30.91132 5.84416,4.07148 18.98091,8.87016 24.575612,8.97715 3.60443,0.069 3.61792,0.0903 1.3589,2.15284 -3.1021,2.83227 -3.27615,11.78577 -0.2535,13.04144 1.11548,0.46339 2.02814,1.39955 2.02814,2.08039 0,1.386 -2.50838,1.35855 -12.264612,-0.13414 z m -4.29866,-3.49467 c -0.37182,-0.48668 -0.98027,-0.48668 -1.35209,0 -0.37183,0.48668 -0.0677,0.88487 0.67604,0.88487 0.74366,0 1.04788,-0.39819 0.67605,-0.88487 z m -3.99292,-1.24435 c -0.33697,-0.44104 -1.2116,-0.4882 -1.94364,-0.10485 -0.80895,0.42371 -0.56866,0.73822 0.61268,0.80191 1.069,0.0576 1.66794,-0.25608 1.33096,-0.69712 z m -4.11967,-1.41025 c -0.37183,-0.48667 -0.98027,-0.48667 -1.3521,0 -0.37182,0.48669 -0.0675,0.88485 0.67605,0.88485 0.74366,0 1.04788,-0.39816 0.67605,-0.88485 z m -3.04222,-1.3273 c -0.37183,-0.48667 -0.98028,-0.48667 -1.35211,0 -0.37182,0.48668 -0.0675,0.88487 0.67606,0.88487 0.74365,0 1.04788,-0.39819 0.67605,-0.88487 z m -3.71828,-1.76972 c -0.83661,-0.70765 -1.97744,-1.28664 -2.53519,-1.28664 -0.55773,0 -0.32957,0.57899 0.50704,1.28664 0.83661,0.70766 1.97745,1.28664 2.53519,1.28664 0.55774,0 0.32957,-0.57898 -0.50704,-1.28664 z m 17.91533,-7.52135 c -0.37182,-0.48665 -0.98028,-0.48665 -1.3521,0 -0.37183,0.48668 -0.0677,0.88488 0.67605,0.88488 0.74365,0 1.04788,-0.3982 0.67605,-0.88488 z m -4.05631,-1.32728 c -0.37182,-0.48667 -0.98028,-0.48667 -1.3521,0 -0.37183,0.48668 -0.0675,0.88487 0.67605,0.88487 0.74365,0 1.04788,-0.39819 0.67605,-0.88487 z m -3.71828,-1.76972 c -0.8366,-0.70767 -1.97743,-1.28665 -2.53518,-1.28665 -0.55773,0 -0.32957,0.57898 0.50704,1.28665 0.83661,0.70765 1.97744,1.28664 2.53519,1.28664 0.55773,0 0.32957,-0.57899 -0.50705,-1.28664 z m -19.77445,-1.3273 c 0.3447,-0.73002 0.39856,-1.32731 0.11966,-1.32731 -0.27887,0 -0.78906,0.59729 -1.13377,1.32731 -0.3447,0.73001 -0.39857,1.3273 -0.11966,1.3273 0.27887,0 0.78906,-0.59729 1.13377,-1.3273 z m -1.87996,-1.94409 c 1.16631,-1.06925 2.34989,-1.64392 2.63018,-1.27707 0.28028,0.36684 -10e-4,-1.83706 -0.62516,-4.89758 -0.89178,-4.37299 -1.83761,-5.94894 -4.41692,-7.35952 -2.98053,-1.63002 -3.50494,-1.54139 -5.70675,0.96438 -2.18081,2.48188 -2.32431,3.27657 -1.42704,7.90331 1.25284,6.46043 5.38531,8.48059 9.54569,4.66648 z m -7.17428,-2.79625 c -3.06293,-4.00898 -1.30064,-9.85991 2.9698,-9.85991 4.40988,0 6.02674,5.81891 2.70884,9.74901 -2.31523,2.74243 -3.64821,2.76848 -5.67864,0.11087 z m 5.25193,-4.21891 c 0.24493,-0.96283 -0.43946,-1.65911 -1.63075,-1.65911 -2.21769,0 -3.5524,1.73333 -2.4479,3.179 1.02033,1.33547 3.59649,0.37548 4.07865,-1.51989 z m 19.52047,8.2956 c 0,-0.365 -0.22817,-0.66366 -0.50704,-0.66366 -0.27887,0 -0.50703,0.29866 -0.50703,0.66366 0,0.365 0.22816,0.66365 0.50703,0.66365 0.27887,0 0.50704,-0.29865 0.50704,-0.66365 z m -2.02815,-1.3273 c 0,-0.365 -0.22817,-0.66365 -0.50704,-0.66365 -0.27887,0 -0.50703,0.29865 -0.50703,0.66365 0,0.365 0.22816,0.66364 0.50703,0.66364 0.27887,0 0.50704,-0.29864 0.50704,-0.66364 z m -2.02815,-1.32728 c 0,-0.36501 -0.22817,-0.66367 -0.50704,-0.66367 -0.27887,0 -0.50703,0.29866 -0.50703,0.66367 0,0.365 0.22816,0.66363 0.50703,0.66363 0.27887,0 0.50704,-0.29863 0.50704,-0.66363 z m -27.38002,-7.96379 c 0,-0.36501 -0.22817,-0.66364 -0.50703,-0.66364 -0.27888,0 -0.50705,0.29863 -0.50705,0.66364 0,0.36501 0.22817,0.66366 0.50705,0.66366 0.27886,0 0.50703,-0.29865 0.50703,-0.66366 z m -3.74741,-7.9471 c -0.92755,-2.54588 -1.86649,-4.39323 -2.08652,-4.10522 -0.4639,0.60718 2.61448,8.73409 3.30837,8.73409 0.25554,0 -0.29431,-2.08298 -1.22185,-4.62887 z m 12.24667,-5.98949 c -1.47637,-2.92006 -2.87878,-5.30917 -3.11645,-5.30917 -0.51363,0 0.33977,2.00554 2.96512,6.96828 3.02099,5.71062 3.1519,4.27552 0.15133,-1.65911 z m -14.58371,-0.66365 c 0,-0.36502 -0.22817,-0.66365 -0.50703,-0.66365 -0.27887,0 -0.50705,0.29863 -0.50705,0.66365 0,0.365 0.22818,0.66365 0.50705,0.66365 0.27886,0 0.50703,-0.29865 0.50703,-0.66365 z m 11.15482,-6.63647 c 0,-0.36501 -0.22816,-0.66365 -0.50703,-0.66365 -0.27888,0 -0.50704,0.29864 -0.50704,0.66365 0,0.36501 0.22816,0.66365 0.50704,0.66365 0.27887,0 0.50703,-0.29864 0.50703,-0.66365 z m -7.66401,-4.52175 c 0.31257,-0.66194 -0.34501,-0.89091 -1.46126,-0.50885 -2.36785,0.81047 -2.66717,1.71236 -0.56829,1.71236 0.8037,0 1.717,-0.54158 2.02955,-1.20351 z m 0.51438,-4.00891 c 2.24123,-2.2545 2.38994,-2.99352 1.52112,-7.55881 -0.79015,-4.15192 -1.56542,-5.28508 -4.31984,-6.31407 -2.80592,-1.04822 -3.69191,-0.81552 -5.39818,1.41779 -2.92866,3.83324 -1.75555,11.70755 2.01352,13.51538 3.60539,1.72933 3.3701,1.76966 6.18338,-1.06029 z m -5.33037,-1.10304 c -1.00771,-0.29958 -2.28238,-2.09446 -2.8326,-3.9886 -1.42467,-4.90459 1.63446,-8.96343 5.35882,-7.11006 3.51823,1.75079 4.19912,5.9661 1.47435,9.12754 -1.19259,1.38372 -2.99285,2.27071 -4.00057,1.97112 z m 3.17417,-6.07202 c 0.18971,-1.28026 -0.31927,-2.21277 -1.20775,-2.21277 -1.88388,0 -3.02089,2.16369 -2.12926,4.05195 0.91725,1.94257 2.942,0.82667 3.33701,-1.83918 z m -3.20108,-15.04329 c -0.37184,-0.48667 -0.98028,-0.48667 -1.35211,0 -0.37183,0.48668 -0.0676,0.88486 0.67605,0.88486 0.74366,0 1.04788,-0.39818 0.67606,-0.88486 z m 67.714332,83.84112 c 1.08264,-1.0952 2.33755,-1.99124 2.78869,-1.99124 0.45115,0 0.82026,-2.36813 0.82026,-5.2625 0,-4.09309 -0.50701,-5.62202 -2.28166,-6.88051 -2.05295,-1.45584 -1.37312,-1.85371 6.78156,-3.96886 12.84202,-3.33096 20.86482,-8.85872 29.58389,-20.38348 8.18361,-10.81704 13.23978,-21.76846 17.16081,-37.16955 1.48686,-5.8401 2.83225,-10.79675 2.98976,-11.01477 0.64505,-0.89296 5.54307,1.42576 5.0806,2.40515 -0.27578,0.58408 0.37279,0.76271 1.44131,0.397 4.90601,-1.67924 5.11918,11.06746 0.5053,30.21707 -7.69572,31.94074 -28.91785,51.42689 -59.74047,54.85373 -6.445,0.71656 -6.91727,0.60589 -5.13005,-1.20204 z m 15.43982,-2.87611 c -0.37182,-0.48668 -0.98027,-0.48668 -1.3521,0 -0.37182,0.48668 -0.0675,0.88487 0.67604,0.88487 0.74365,0 1.04789,-0.39819 0.67606,-0.88487 z m 5.13376,-1.24435 c -0.33698,-0.44104 -1.21161,-0.4882 -1.94365,-0.10485 -0.80897,0.42371 -0.56868,0.73822 0.61268,0.80191 1.069,0.0576 1.66793,-0.25608 1.33097,-0.69712 z m 2.97884,-1.41025 c -0.37183,-0.48667 -0.98026,-0.48667 -1.35211,0 -0.37182,0.48669 -0.0675,0.88485 0.67606,0.88485 0.74365,0 1.04787,-0.39816 0.67605,-0.88485 z m 3.04223,-1.3273 c -0.37184,-0.48667 -0.98028,-0.48667 -1.35211,0 -0.37182,0.48668 -0.0675,0.88487 0.67605,0.88487 0.74366,0 1.04788,-0.39819 0.67606,-0.88487 z m 3.04221,-1.32729 c -0.37182,-0.48666 -0.98026,-0.48666 -1.3521,0 -0.37182,0.48668 -0.0675,0.88486 0.67606,0.88486 0.74365,0 1.04787,-0.39818 0.67604,-0.88486 z m 2.36618,-1.10607 c 0,-0.36501 -0.22817,-0.66366 -0.50703,-0.66366 -0.27888,0 -0.50705,0.29865 -0.50705,0.66366 0,0.36501 0.22817,0.66364 0.50705,0.66364 0.27886,0 0.50703,-0.29863 0.50703,-0.66364 z m -19.60544,-6.85771 c -0.37184,-0.48665 -0.98028,-0.48665 -1.35211,0 -0.37182,0.48668 -0.0675,0.88488 0.67606,0.88488 0.74365,0 1.04786,-0.3982 0.67605,-0.88488 z m 4.0563,-1.32728 c -0.37183,-0.48667 -0.98028,-0.48667 -1.35211,0 -0.37182,0.48668 -0.0675,0.88487 0.67606,0.88487 0.74365,0 1.04787,-0.39819 0.67605,-0.88487 z m 4.39431,-1.76972 c 0.83662,-0.70767 1.06478,-1.28665 0.50704,-1.28665 -0.55773,0 -1.69856,0.57898 -2.53518,1.28665 -0.83661,0.70765 -1.06479,1.28664 -0.50704,1.28664 0.55775,0 1.69858,-0.57899 2.53518,-1.28664 z m 3.04224,-1.99095 c 0,-0.365 -0.22818,-0.66366 -0.50705,-0.66366 -0.27886,0 -0.50703,0.29866 -0.50703,0.66366 0,0.365 0.22817,0.66365 0.50703,0.66365 0.27887,0 0.50705,-0.29865 0.50705,-0.66365 z m 25.05915,-1.16538 c 0.25852,-0.3384 0.83933,-2.75827 1.29066,-5.3775 0.71336,-4.13993 0.50143,-5.09086 -1.62184,-7.27689 -4.04841,-4.1681 -8.8436,-1.53647 -9.90936,5.43831 -0.91033,5.95747 1.73964,9.53708 6.33731,8.56054 1.88823,-0.40107 3.6447,-1.00608 3.90323,-1.34446 z m -7.3036,-3.46678 c -1.53212,-2.21589 -1.65288,-3.25119 -0.69891,-5.9916 1.85011,-5.3148 8.32299,-3.80599 8.27969,1.92998 -0.0416,5.52245 -4.80583,8.07498 -7.58078,4.06162 z m 4.64782,-3.33161 c -0.008,-0.73001 -0.94414,-1.51817 -2.08171,-1.75143 -2.03949,-0.41823 -2.74381,1.08851 -1.35721,2.90338 0.98603,1.29062 3.45523,0.4635 3.43892,-1.15195 z m -20.37523,6.63647 c 0,-0.365 -0.22817,-0.66365 -0.50704,-0.66365 -0.27886,0 -0.50704,0.29865 -0.50704,0.66365 0,0.365 0.22818,0.66364 0.50704,0.66364 0.27887,0 0.50704,-0.29864 0.50704,-0.66364 z m 2.02816,-1.32728 c 0,-0.36501 -0.22818,-0.66367 -0.50705,-0.66367 -0.27886,0 -0.50703,0.29866 -0.50703,0.66367 0,0.365 0.22817,0.66363 0.50703,0.66363 0.27887,0 0.50705,-0.29863 0.50705,-0.66363 z m 28.90113,-11.28202 c 0.3447,-0.73002 0.39856,-1.3273 0.11966,-1.3273 -0.27888,0 -0.78907,0.59728 -1.13377,1.3273 -0.34471,0.73001 -0.39857,1.3273 -0.11966,1.3273 0.27888,0 0.78906,-0.59729 1.13377,-1.3273 z m 3.54926,-8.43868 c 0,-1.68638 -0.4684,-0.93339 -1.94673,3.12949 -1.13846,3.1288 -1.11735,3.17115 0.36967,0.7418 0.86739,-1.41705 1.57706,-3.15913 1.57706,-3.87129 z m -15.71817,1.80219 c 0.34472,-0.73 0.39856,-1.32728 0.11966,-1.32728 -0.27886,0 -0.78907,0.59728 -1.13376,1.32728 -0.34471,0.73002 -0.39857,1.3273 -0.11966,1.3273 0.27887,0 0.78906,-0.59728 1.13376,-1.3273 z m 3.5795,-6.71038 c 1.54098,-3.76868 0.4899,-3.15373 -1.5399,0.90098 -0.95862,1.91492 -1.24172,3.07623 -0.62911,2.58068 0.61259,-0.49554 1.58865,-2.0623 2.16901,-3.48166 z m 13.15274,2.06486 c 0,-0.36502 -0.22816,-0.66365 -0.50704,-0.66365 -0.27887,0 -0.50703,0.29863 -0.50703,0.66365 0,0.365 0.22816,0.66365 0.50703,0.66365 0.27888,0 0.50704,-0.29865 0.50704,-0.66365 z m -11.15482,-6.63647 c 0,-0.36501 -0.22817,-0.66365 -0.50704,-0.66365 -0.27886,0 -0.50704,0.29864 -0.50704,0.66365 0,0.36501 0.22818,0.66365 0.50704,0.66365 0.27887,0 0.50704,-0.29864 0.50704,-0.66365 z m 11.91673,-7.38396 c 4.17037,-1.90283 5.5253,-9.53177 2.41572,-13.60179 -1.70626,-2.23331 -2.59226,-2.46601 -5.39817,-1.41779 -2.76047,1.03124 -3.5292,2.15974 -4.32688,6.35176 -0.86538,4.54786 -0.71654,5.36635 1.37994,7.58833 2.77261,2.93859 2.11665,2.81915 5.92939,1.07949 z m -4.25355,-3.81473 c -2.49665,-3.61086 -1.97936,-7.91344 1.13791,-9.46468 3.83404,-1.90795 6.95243,2.0321 5.51765,6.97148 -1.24221,4.27641 -4.56258,5.52026 -6.65556,2.4932 z m 3.99868,-4.15764 c 0,-1.02419 -0.79858,-2.06346 -1.77463,-2.30947 -1.74801,-0.44062 -2.47063,2.37577 -1.07746,4.19928 1.06296,1.39127 2.85209,0.2058 2.85209,-1.88981 z m 3.54926,-13.84416 c 0,-0.36502 -0.22816,-0.66366 -0.50704,-0.66366 -0.27887,0 -0.50704,0.29864 -0.50704,0.66366 0,0.365 0.22817,0.66364 0.50704,0.66364 0.27888,0 0.50704,-0.29864 0.50704,-0.66364 z m -70.38066,78.56786 c -2.30475,-2.20579 -1.79679,-7.32476 0.96359,-9.71068 1.76545,-1.52594 2.40872,-1.4879 4.3098,0.25497 2.77415,2.54325 2.92483,7.95773 0.27316,9.81522 -2.54937,1.78578 -3.35991,1.73324 -5.54655,-0.35951 z m 4.92953,-3.48396 c 0.3209,-0.67959 0.0978,-1.62843 -0.49574,-2.10857 -1.50078,-1.21403 -4.29162,0.37683 -3.52166,2.00746 0.79259,1.67856 3.24342,1.74024 4.0174,0.1012 z M 92.071068,225.78161 c -0.29615,-1.01013 -0.40088,-5.65599 -0.23273,-10.32419 l 0.30572,-8.48761 h 14.197082 14.19702 v 9.95471 9.95473 l -13.96428,0.36944 c -11.149502,0.29498 -14.072912,-7.4e-4 -14.502812,-1.46708 z m 3.62225,-0.22966 c 0,-0.36502 -0.22816,-0.66365 -0.50703,-0.66365 -0.27888,0 -0.50704,0.29863 -0.50704,0.66365 0,0.365 0.22816,0.66363 0.50704,0.66363 0.27887,0 0.50703,-0.29863 0.50703,-0.66363 z m -2.02815,-1.3273 c 0,-0.36502 -0.22816,-0.66365 -0.50703,-0.66365 -0.27888,0 -0.50704,0.29863 -0.50704,0.66365 0,0.365 0.22816,0.66365 0.50704,0.66365 0.27887,0 0.50703,-0.29865 0.50703,-0.66365 z m 26.365962,-15.92754 c 0,-0.36502 -0.22816,-0.66365 -0.50704,-0.66365 -0.27887,0 -0.50703,0.29863 -0.50703,0.66365 0,0.365 0.22816,0.66364 0.50703,0.66364 0.27888,0 0.50704,-0.29864 0.50704,-0.66364 z m -40.111952,1.8724 c -0.2358,-0.49939 0.29828,-1.6977 1.18685,-2.66295 0.88859,-0.96522 2.07464,-3.2727 2.63572,-5.12774 0.96183,-3.18011 1.06384,-3.22114 1.7858,-0.7182 l 0.76571,2.65459 0.52609,-2.65459 c 0.3215,-1.62222 0.57183,-0.74936 0.64373,2.24444 0.0647,2.69446 -0.45279,5.37826 -1.14997,5.96401 -1.57631,1.32433 -5.81638,1.52359 -6.39393,0.30044 z m 6.45161,-4.56211 c -0.31222,-0.40866 -0.87925,0.32798 -1.26007,1.63699 -0.55032,1.89166 -0.43385,2.0441 0.56768,0.74301 0.69303,-0.90034 1.00461,-1.97135 0.69239,-2.38 z m 39.947612,4.41519 c -0.66929,-0.87601 -1.16396,-3.71312 -1.09926,-6.30465 0.0742,-2.973 0.31179,-3.73224 0.64373,-2.05732 l 0.52608,2.65459 0.76571,-2.65459 c 0.71533,-2.47993 0.83554,-2.42327 1.82746,0.86155 0.58397,1.93385 2.02378,4.39808 3.19961,5.47603 1.98742,1.82202 2.00998,2.02415 0.3205,2.87272 -1.26336,0.63453 -2.51383,-0.14706 -4.10201,-2.56365 -1.25655,-1.91204 -2.28464,-3.04219 -2.28464,-2.51146 0,0.53074 0.75522,2.05726 1.67828,3.39226 1.83569,2.65491 0.49478,3.41333 -1.47546,0.83452 z m 6.49704,-3.84198 c -1.89599,-1.95205 -2.64357,-3.96219 -2.64357,-7.10839 0,-4.97885 1.42295,-7.00879 5.69737,-8.12771 3.70736,-0.9705 6.56229,2.67649 6.68977,8.54579 0.0837,3.85182 -1.96337,8.95603 -3.03125,7.5583 -0.27273,-0.35697 -1.29977,-0.0859 -2.28231,0.60234 -1.30748,0.91588 -2.49522,0.52165 -4.43001,-1.47033 z m 5.48954,-2.57916 c 1.37903,-3.37265 0.44962,-7.49093 -2.09239,-9.27159 -1.62409,-1.13765 -2.03747,-0.81838 -2.57589,1.98939 -0.35273,1.83946 -0.2915,4.39107 0.13607,5.67024 0.42757,1.27914 0.70495,2.7737 0.61641,3.32121 -0.35939,2.22221 2.88783,0.80478 3.9158,-1.70925 z m -5.86262,-5.88254 c 0.26331,-1.80294 0.0883,-2.96225 -0.38883,-2.57625 -0.84021,0.67967 -1.26341,5.85433 -0.47877,5.85433 0.21386,0 0.60427,-1.47514 0.8676,-3.27808 z m -59.819242,8.54589 c -2.80104,-1.47365 -3.13568,-8.39048 -0.63225,-13.06859 1.32536,-2.47665 2.25276,-2.92431 4.72021,-2.27839 4.35621,1.14037 5.79926,3.14221 5.79926,8.04503 0,7.1518 -4.23196,10.2772 -9.88722,7.30195 z m 5.36719,-1.19422 c -0.32089,-0.67957 -0.11966,-1.61075 0.44719,-2.06927 0.56684,-0.45854 1.0376,-2.44098 1.04614,-4.40542 0.0125,-2.88632 0.22196,-3.18967 1.09128,-1.58079 0.85622,1.58463 0.99628,1.60532 0.68632,0.1012 -0.21419,-1.03931 -1.62045,-2.10543 -3.12503,-2.36916 -2.10186,-0.36839 -2.99337,0.26107 -3.84839,2.71726 -1.31238,3.77002 0.25967,8.84169 2.74063,8.84169 0.84992,0 1.28274,-0.55602 0.96186,-1.23559 z m 3.16793,-4.95847 c -0.37183,-0.48666 -0.67605,-0.0884 -0.67605,0.88488 0,0.97334 0.30422,1.37153 0.67605,0.88487 0.37183,-0.48668 0.37183,-1.28307 0,-1.76975 z m 14.53508,-26.7406 c -3.06757,-1.34061 -6.94642,-3.47234 -8.61964,-4.73715 -2.751,-2.0795 -2.79954,-2.22386 -0.50705,-1.50804 16.926612,5.28525 22.099732,5.71693 32.450432,2.70784 3.62532,-1.05394 7.73231,-2.24553 9.12667,-2.64799 1.39435,-0.40245 -0.34196,1.13567 -3.85849,3.41802 -8.30893,5.39281 -19.99599,6.52395 -28.591922,2.76732 z m -22.29197,-12.82914 c -0.94817,-1.49536 -1.72325,-1.62786 -3.25324,-0.55612 -2.69138,1.8853 -3.70744,0.31527 -1.29203,-1.99644 1.63991,-1.56952 1.71798,-2.14565 0.54202,-4.00024 -0.7556,-1.19166 -1.04639,-2.59521 -0.64622,-3.11901 0.40018,-0.52378 1.17408,0.0919 1.71976,1.36816 0.79693,1.86388 1.39768,2.03644 3.05303,0.87688 2.6209,-1.83593 3.97748,-0.23204 1.6709,1.97552 -1.56772,1.50042 -1.58638,1.9359 -0.19442,4.53702 1.71807,3.21053 0.35144,3.99152 -1.5998,0.91423 z m -1.03176,-4.00977 c 0,-0.36502 -0.22817,-0.66365 -0.50704,-0.66365 -0.27887,0 -0.50703,0.29863 -0.50703,0.66365 0,0.365 0.22816,0.66364 0.50703,0.66364 0.27887,0 0.50704,-0.29864 0.50704,-0.66364 z m 5.1498,2.18516 c -0.61845,-1.5125 -0.70478,-3.00659 -0.19745,-3.41698 0.49584,-0.40109 1.16347,0.58181 1.48363,2.18425 0.77797,3.89387 0.0767,4.56597 -1.28618,1.23273 z m 60.111462,-0.32309 c 1.18924,-2.22229 1.32005,-3.46565 0.50059,-4.75803 -1.39957,-2.20724 -4.11914,-2.24954 -5.81447,-0.0905 -1.05259,1.34053 -1.23759,1.04752 -0.96337,-1.52594 0.18667,-1.75179 1.58113,-4.39399 3.09881,-5.87153 2.32092,-2.25957 3.16928,-2.44203 5.33883,-1.14818 1.41868,0.84604 3.10827,3.05751 3.75467,4.9144 0.98851,2.83964 0.84911,3.95005 -0.87723,6.98784 -1.12886,1.98645 -3.08643,3.81167 -4.35013,4.05605 -2.19519,0.42453 -2.22584,0.31017 -0.6877,-2.56414 z m 3.13453,-11.36924 c -1.01996,-0.97617 -2.56583,-1.75093 -3.43528,-1.72169 -0.92956,0.0311 -0.43197,0.86889 1.20789,2.03332 1.53379,1.08911 2.82475,2.70771 2.86878,3.59693 0.0506,1.02293 0.28811,0.928 0.64657,-0.25848 0.31158,-1.03137 -0.26801,-2.6739 -1.28796,-3.65008 z m -7.41911,11.04287 c -1.40444,-2.21488 0.27399,-5.44329 2.30068,-4.42536 0.89289,0.44847 1.62346,1.66617 1.62346,2.70599 0,2.56642 -2.65066,3.7278 -3.92414,1.71937 z m -52.718512,-4.16318 c -0.69805,-2.5267 -2.62512,-5.85769 -4.28234,-7.40225 l -3.01316,-2.80825 2.52441,-2.59904 c 2.34834,-2.41775 2.73705,-2.45509 5.57306,-0.53555 5.45519,3.69231 6.83615,12.43879 2.54855,16.14161 -1.92181,1.6597 -2.17861,1.44536 -3.35052,-2.79652 z m 3.51707,-5.11783 c 1.1625,-0.28197 0.64357,-2.27775 -1.34285,-5.16451 -0.86722,-1.26032 -2.02084,-1.93227 -2.56358,-1.49322 -0.58136,0.47028 -0.42152,1.26707 0.38904,1.93933 0.988,0.81937 0.68281,1.14677 -1.08257,1.16137 l -2.45844,0.0203 2.39188,3.33245 c 1.53339,2.13637 2.63845,2.81025 3.07885,1.87757 0.37783,-0.80017 1.09228,-1.55319 1.58767,-1.67332 z m -3.66264,-1.54576 c 0,-0.36501 0.22817,-0.66364 0.50704,-0.66364 0.27887,0 0.50704,0.29863 0.50704,0.66364 0,0.36501 -0.22817,0.66365 -0.50704,0.66365 -0.27887,0 -0.50704,-0.29864 -0.50704,-0.66365 z m 46.192022,5.76081 c -0.88205,-2.75475 1.73642,-9.57083 4.73159,-12.31672 2.57073,-2.35677 4.85053,-2.70655 4.85053,-0.74422 0,0.73002 -0.60496,1.3273 -1.34436,1.3273 -1.96022,0 -5.72748,5.69014 -6.69551,10.11307 -0.66237,3.02633 -0.98394,3.3642 -1.54225,1.62057 z m -54.811662,-3.76986 c -0.34469,-0.73002 0.11158,-1.3273 1.01408,-1.3273 0.90245,0 1.35878,0.59728 1.01407,1.3273 -0.3447,0.73001 -0.80103,1.32728 -1.01407,1.32728 -0.21303,0 -0.66937,-0.59727 -1.01408,-1.32728 z m 14.62788,-3.66356 c -2.07868,-6.45975 -6.22977,-9.56632 -9.36656,-7.00969 -2.02456,1.65011 -2.09709,1.61542 -0.82733,-0.39552 0.76547,-1.21232 2.29419,-2.2042 3.39716,-2.2042 2.65853,0 8.90108,8.2847 8.90108,11.81293 0,3.80609 -0.25717,3.5368 -2.10435,-2.20352 z m 10.49541,0.14075 c -6.13885,-2.84513 -13.76401,-12.32723 -16.42585,-20.42604 -1.22419,-3.72464 -2.02378,-7.47525 -1.77689,-8.33465 0.25452,-0.88598 0.75679,-0.41313 1.15996,1.09201 3.49586,13.05077 8.01843,19.92694 16.25729,24.71771 13.131512,7.63578 29.006702,0.0775 35.940712,-17.11151 1.09862,-2.7234 2.01766,-4.00877 2.04229,-2.8564 0.0752,3.51347 -5.8173,13.93331 -10.05096,17.77344 -8.06916,7.31914 -18.28033,9.2546 -27.146552,5.14544 z m 48.397162,0.84865 c 0,-0.74074 -1.48308,-2.53034 -3.29574,-3.97692 -1.81265,-1.44657 -2.5832,-2.63236 -1.71233,-2.63508 1.77217,-0.006 6.02214,4.71095 6.02214,6.68322 0,0.70158 -0.22816,1.27559 -0.50703,1.27559 -0.27888,0 -0.50704,-0.60605 -0.50704,-1.34681 z m -44.00592,-4.91441 c -1.570172,-0.52625 -1.662942,-0.88343 -0.50704,-1.95211 1.05536,-0.9757 0.83476,-1.1416 -0.86829,-0.65302 -1.255692,0.36025 -2.027342,0.11354 -1.714782,-0.54849 0.31256,-0.66195 0.0414,-1.20352 -0.60263,-1.20352 -0.64399,0 -2.38218,-1.12891 -3.86262,-2.50869 -1.48046,-1.37977 -3.07202,-2.52457 -3.53681,-2.54398 -0.46479,-0.0193 -1.14929,-0.47947 -1.52111,-1.02234 -0.37183,-0.54289 -0.10567,-0.55741 0.59154,-0.0322 0.69718,0.52512 1.2676,0.27958 1.2676,-0.54566 0,-0.82523 0.78393,-0.47439 1.74204,0.77966 4.76321,6.23445 13.987762,8.69442 21.522622,5.73965 4.45191,-1.74582 8.95272,-5.92297 7.88611,-7.31905 -0.41927,-0.54877 -1.23453,-0.37967 -1.81169,0.37575 -1.57675,2.06376 -5.56283,0.57837 -8.16065,-3.04103 -2.17098,-3.02468 -3.64322,-7.87448 -1.98264,-6.53118 0.42041,0.34006 2.295,-1.44869 4.16577,-3.97499 l 3.4014,-4.5933 2.84373,3.56598 c 3.55796,4.4616 3.56804,6.55959 0.055,11.45831 -2.34549,3.27066 -2.42802,3.60222 -0.51927,2.0861 1.24821,-0.99143 2.94907,-3.60459 3.7797,-5.80702 0.83063,-2.20243 1.50611,-3.10849 1.50108,-2.01347 -0.004,1.095 -0.64781,3.09424 -1.42837,4.44272 -1.47752,2.55249 -1.02155,6.71826 0.59243,5.41267 0.5084,-0.41127 0.65484,-1.31857 0.3254,-2.01621 -0.32941,-0.69767 -0.0516,-1.10437 0.61726,-0.90377 0.66891,0.20059 1.44653,-0.46503 1.72805,-1.47918 0.35216,-1.26863 0.0754,-1.51279 -0.88732,-0.78266 -0.82606,0.62655 -1.05301,0.56629 -0.55409,-0.14705 0.46479,-0.66456 1.35739,-1.20827 1.98356,-1.20827 1.82712,0 3.93466,-11.36251 3.37188,-18.17895 -1.29549,-15.690776 -11.55577,-28.735086 -21.22104,-26.979136 -2.33578,0.42436 -5.61591,0.18787 -7.28914,-0.52557 -2.555472,-1.0896 -2.14981,-1.21005 2.53521,-0.75285 4.50864,0.43999 4.99445,0.31073 2.53518,-0.67453 -2.42929,-0.97324 -2.02066,-1.07338 2.02814,-0.49698 10.10204,1.43814 19.17365,11.04477 21.97143,23.267246 0.81092,3.54263 1.74278,5.09499 3.05841,5.09499 1.63856,0 1.85485,0.91924 1.6141,6.8598 -0.29789,7.35015 -2.77086,10.975 -2.86604,4.20098 -0.0436,-3.10269 -0.42099,-2.50584 -2.15706,3.41131 -4.65992,15.88268 -17.96771,25.64782 -29.62712,21.74012 z m 7.75276,-1.31197 c -1.2549,-0.31636 -3.30842,-0.31636 -4.56333,0 -1.25491,0.31637 -0.22817,0.57522 2.28168,0.57522 2.50982,0 3.53657,-0.25885 2.28165,-0.57522 z m 11.09296,-4.55109 c 1.56779,-1.4612 2.85056,-2.95537 2.85056,-3.32037 0,-0.36502 -1.25492,0.48643 -2.78872,1.89206 -1.53377,1.40565 -4.15771,3.24175 -5.83093,4.08022 l -3.04221,1.52446 2.98037,-0.75983 c 1.6392,-0.41791 4.26312,-1.95536 5.83093,-3.41654 z m -46.839132,4.82416 c 0,-0.36502 0.22816,-0.66365 0.50703,-0.66365 0.27887,0 0.50704,0.29863 0.50704,0.66365 0,0.365 -0.22817,0.66363 -0.50704,0.66363 -0.27887,0 -0.50703,-0.29863 -0.50703,-0.66363 z m -9.00648,-2.6587 c 2.5535,-1.81629 5.9475,-9.08459 5.97978,-12.80579 0.008,-0.98469 0.46424,-2.68628 1.01266,-3.7813 1.47191,-2.93892 0.0277,6.43656 -1.67426,10.86962 -1.41387,3.68246 -5.09757,7.75293 -6.93161,7.65937 -0.57307,-0.0292 0.15297,-0.90308 1.61343,-1.9419 z m 82.172252,-1.35907 c -3.9361,-4.33499 -4.26954,-6.71459 -4.5125,-32.2039 -0.18768,-19.689816 -0.0435,-21.598406 1.88666,-24.983426 1.14942,-2.01574 2.74658,-3.9339 3.54925,-4.26258 0.91535,-0.37481 0.65539,0.58361 -0.69735,2.57091 -2.44318,3.58928 -4.85482,12.31381 -4.08931,14.79389 0.28517,0.92389 0.54371,0.56967 0.58861,-0.80645 0.0441,-1.3497 0.81654,-4.48543 1.7167,-6.9683 1.48959,-4.10864 2.03097,-4.5143 6.02461,-4.5143 2.41338,0 4.66675,0.59044 5.0075,1.31209 0.34319,0.72682 -0.0241,0.98879 -0.82347,0.58732 -4.20911,-2.11407 -7.30905,12.15762 -6.53029,30.064376 0.60525,13.9168 2.2702,19.15593 6.06684,19.0905 2.08769,-0.036 2.45597,0.34115 1.62025,1.65913 -1.85867,2.93132 -8.60653,2.12475 -10.4094,-1.24424 -0.86823,-1.62246 -1.57862,-2.16073 -1.57862,-1.19616 0,0.96455 1.41727,3.48658 3.14949,5.60449 3.87413,4.73682 3.19642,5.08419 -0.96897,0.49665 z m -2.18052,-9.25519 c 0,-0.365 -0.22816,-0.66364 -0.50704,-0.66364 -0.27886,0 -0.50702,0.29864 -0.50702,0.66364 0,0.365 0.22816,0.66366 0.50702,0.66366 0.27888,0 0.50704,-0.29866 0.50704,-0.66366 z m 5.07038,0 c 0,-0.365 -0.22817,-0.66364 -0.50704,-0.66364 -0.27886,0 -0.50704,0.29864 -0.50704,0.66364 0,0.365 0.22818,0.66366 0.50704,0.66366 0.27887,0 0.50704,-0.29866 0.50704,-0.66366 z m -1.33542,-4.8944 c -0.32373,-1.05882 -0.564,-0.7443 -0.61266,0.80191 -0.0441,1.39919 0.19562,2.18313 0.5326,1.74207 0.33698,-0.44104 0.37299,-1.58583 0.0799,-2.54398 z m -5.08705,-0.63598 c -0.37183,-0.48668 -0.67605,-0.0885 -0.67605,0.88484 0,0.97336 0.30422,1.37155 0.67605,0.88487 0.37182,-0.48668 0.37182,-1.28305 0,-1.76971 z m 4.65978,-19.68821 c 0.2129,-8.030146 0.0576,-13.107036 -0.34515,-11.282016 -0.40272,1.82502 -0.72478,9.291066 -0.71567,16.591186 0.0207,16.5932 0.55049,13.94174 1.06082,-5.30917 z m -45.16956,32.72551 c -1.59236,-0.82347 -1.40634,-1.44085 1.57264,-5.22001 l 3.37859,-4.28612 3.31145,4.47185 c 3.30609,4.46462 3.30766,4.47317 0.96254,5.29519 -2.99014,1.04811 -6.90822,0.93728 -9.22522,-0.26091 z M 56.325278,132.9265 c -0.83622,-1.31878 -0.46185,-1.69511 1.65046,-1.65913 2.38199,0.0406 2.95366,-0.80366 4.46224,-6.58991 4.12285,-15.81351 0.63779,-45.374466 -5.01468,-42.535446 -0.76133,0.38239 -1.10544,0.10484 -0.76469,-0.61684 0.34076,-0.72165 2.59412,-1.31209 5.0075,-1.31209 4.06687,0 4.52278,0.3642 6.23067,4.97736 1.29106,3.48725 1.96748,9.05758 2.2594,18.606476 0.44016,14.39742 -0.83551,24.50839 -3.59733,28.51251 -1.89504,2.74742 -8.62543,3.15328 -10.23357,0.61707 z m 7.93171,-5.59445 c 0,-0.365 -0.22816,-0.66364 -0.50704,-0.66364 -0.27887,0 -0.50703,0.29864 -0.50703,0.66364 0,0.365 0.22816,0.66366 0.50703,0.66366 0.27888,0 0.50704,-0.29866 0.50704,-0.66366 z m 2.15822,-19.9045 c 0.006,-6.57278 -0.3633,-13.258776 -0.82029,-14.857746 -0.50107,-1.7532 -0.83089,4.142578 -0.83089,14.852876 0,10.54999 0.33301,16.58182 0.82029,14.85775 0.45115,-1.59629 0.82505,-8.28009 0.83089,-14.85288 z m 49.559622,25.21373 c 0,-0.365 0.22817,-0.66364 0.50703,-0.66364 0.27888,0 0.50705,0.29864 0.50705,0.66364 0,0.36501 -0.22817,0.66365 -0.50705,0.66365 -0.27886,0 -0.50703,-0.29864 -0.50703,-0.66365 z m -24.365672,-5.348 c -1.10016,-1.53277 -2.0003,-4.057 -2.0003,-5.60939 0,-1.55241 -0.45634,-3.19169 -1.01408,-3.64286 -0.55773,-0.45118 -1.01407,-4.36876 -1.01407,-8.70575 0,-4.37208 0.45182,-7.88543 1.01407,-7.88543 0.55774,0 1.01408,-1.592759 1.01408,-3.539459 0,-1.946689 0.31061,-3.132897 0.69025,-2.636009 0.90686,1.18697 6.49486,-5.840318 5.80535,-7.300598 -1.24003,-2.62612 1.57135,-0.78897 5.250862,3.43124 l 3.97175,4.555408 -4.36069,5.731118 -4.360702,5.73113 -2.92594,-4.2388 c -1.75877,-2.54793 -3.10383,-3.606849 -3.3719,-2.65459 -0.24527,0.87132 0.72334,3.22674 2.15246,5.23427 l 2.59839,3.65004 -2.82667,3.86174 c -1.97199,2.69405 -2.56595,4.46383 -1.96437,5.85299 0.69586,1.60683 1.35176,1.1246 3.39752,-2.4979 1.39435,-2.46903 2.78482,-4.50559 3.08994,-4.52568 0.30511,-0.02 2.33352,2.34769 4.507532,5.26175 l 3.95277,5.29831 -2.92409,3.99477 c -3.443642,4.70459 -7.583962,4.95021 -10.682162,0.6337 z m 1.34279,-1.15847 c -1.00208,-1.75354 -2.00931,-2.95177 -2.23828,-2.66273 -0.41723,0.52665 2.91612,5.85098 3.66304,5.85098 0.21848,0 -0.42267,-1.43473 -1.42476,-3.18825 z m -6.53058,-2.32415 c -3.45677,-8.6156 -3.30254,-20.99252 0.36329,-29.154356 1.51426,-3.37144 2.42692,-6.60295 2.02815,-7.1811 -0.39879,-0.57816 -0.16055,-0.62633 0.52941,-0.10708 0.69873,0.5259 2.24346,-0.26183 3.48696,-1.77815 1.22786,-1.49727 2.62972,-2.7223 3.11521,-2.7223 0.48548,0 0.6039,-0.59045 0.26314,-1.3121 -0.35829,-0.75881 0.0596,-0.97101 0.99085,-0.50326 1.22216,0.61384 0.51579,1.80602 -2.92988,4.94499 -8.76967,7.9891 -11.78158,23.854836 -6.95126,36.616786 2.90603,7.67785 2.12377,8.72264 -0.89587,1.19651 z m -30.22365,-0.79227 c -1.46485,-6.90382 -1.35599,-7.88722 0.96075,-8.68017 1.65683,-0.5671 2.02815,-1.81046 2.02815,-6.79129 0,-3.35339 0.45634,-6.09708 1.01407,-6.09708 0.55774,0 1.01408,2.63799 1.01408,5.86222 0,3.44785 0.52205,6.13794 1.2676,6.53168 1.01407,0.53557 1.01407,0.69042 0,0.77427 -0.69719,0.0576 -1.2676,1.59798 -1.2676,3.42301 0,1.82504 -0.47634,3.31824 -1.05853,3.31824 -0.58218,0 -0.98446,0.74661 -0.89393,1.65912 0.31045,3.12914 -0.0765,4.97736 -1.0421,4.97736 -0.53152,0 -1.44165,-2.23982 -2.02249,-4.97736 z m 4.00297,-7.63195 c 0,-0.365 -0.22816,-0.66365 -0.50704,-0.66365 -0.27887,0 -0.50703,0.29865 -0.50703,0.66365 0,0.36502 0.22816,0.66365 0.50703,0.66365 0.27888,0 0.50704,-0.29863 0.50704,-0.66365 z m 93.178132,10.95019 c -0.0642,-0.91253 -0.027,-2.76965 0.0825,-4.12697 0.11894,-1.47316 -0.24269,-2.11032 -0.89729,-1.58079 -0.67332,0.54464 -1.09662,-0.38139 -1.09662,-2.39889 0,-1.80729 -0.57043,-3.58724 -1.2676,-3.95543 -1.01407,-0.53559 -1.01407,-0.69044 0,-0.77426 0.81442,-0.0673 1.2676,-2.24011 1.2676,-6.07761 0,-7.955139 1.83324,-7.681879 2.22611,0.33183 0.25908,5.28492 0.63711,6.30463 2.33723,6.30463 1.70012,0 2.07814,-1.01971 2.33722,-6.30463 0.17001,-3.46756 0.71541,-6.30466 1.21204,-6.30466 1.49744,0 1.61514,12.23945 0.1723,17.91418 -1.83418,7.21382 -2.49549,7.70049 -1.80944,1.3316 l 0.5719,-5.30919 -1.55448,6.30465 c -1.46214,5.93017 -3.32135,8.34174 -3.58151,4.64554 z M 52.968858,119.70014 c -1.49912,-6.09344 -1.37329,-18.25029 0.18887,-18.25029 0.52718,0 0.97881,2.53846 1.00362,5.641 0.0249,3.10256 0.20193,8.4781 0.3936,11.94565 0.19166,3.46757 0.22545,6.30465 0.0752,6.30465 -0.15037,0 -0.89789,-2.53844 -1.66118,-5.64101 z m 74.160802,2.32278 c 0,-0.36502 0.22816,-0.66365 0.50703,-0.66365 0.27887,0 0.50704,0.29863 0.50704,0.66365 0,0.365 -0.22817,0.66365 -0.50704,0.66365 -0.27887,0 -0.50703,-0.29865 -0.50703,-0.66365 z M 102.238,117.31341 c -1.58294,-2.16253 -2.976462,-4.80948 -3.096732,-5.88208 -0.12026,-1.07263 1.645102,-4.38966 3.923082,-7.37121 l 4.14174,-5.421009 4.0958,5.360879 4.09578,5.36088 -3.5142,4.78084 c -5.42116,7.3752 -6.34601,7.67931 -9.64547,3.1717 z m 3.5961,2.30323 c 0,-0.22841 -1.48308,-2.16959 -3.29574,-4.31369 l -3.295762,-3.8984 2.978452,4.31372 c 2.77632,4.02098 3.61305,4.9238 3.61305,3.89837 z m 7.09851,-4.2302 c 1.30993,-1.82502 2.60985,-3.31824 2.88872,-3.31824 0.27888,0 -0.56471,1.49322 -1.87466,3.31824 -1.30992,1.82503 -2.60984,3.31824 -2.8887,3.31824 -0.27888,0 0.56471,-1.49321 1.87464,-3.31824 z m 8.5832,0.61098 c -0.98946,-1.43107 -1.44425,-2.60192 -1.01063,-2.60192 0.43359,0 0.2845,-0.79464 -0.33134,-1.76588 -0.85721,-1.35189 -0.41087,-2.65472 1.90399,-5.55748 2.80938,-3.52292 4.19479,-7.053589 2.10416,-5.36244 -0.50571,0.4091 -0.65506,-0.57971 -0.33187,-2.197329 0.53114,-2.658439 0.70959,-2.499129 1.85643,1.657289 0.69785,2.52913 1.27144,6.68892 1.27468,9.24394 0.0109,8.51507 -2.2484,11.23653 -5.46542,6.58382 z m 2.57161,0.87884 c 0,-0.27562 -0.79858,-1.32086 -1.77462,-2.32276 -1.60838,-1.65098 -1.64425,-1.60405 -0.38288,0.50113 1.32476,2.21093 2.1575,2.91403 2.1575,1.82163 z m -33.464482,-0.16253 c 0,-0.365 0.22817,-0.66364 0.50705,-0.66364 0.27887,0 0.50703,0.29864 0.50703,0.66364 0,0.36501 -0.22816,0.66366 -0.50703,0.66366 -0.27888,0 -0.50705,-0.29865 -0.50705,-0.66366 z m -11.3277,-4.31371 c -1.72923,-2.67543 -2.21589,-8.29558 -0.71832,-8.29558 0.55599,0 0.75841,0.53471 0.44983,1.18821 -0.30858,0.65352 0.0638,1.50206 0.82747,1.88564 0.76369,0.38356 1.38853,2.23799 1.38853,4.12094 0,4.06366 -0.0238,4.07712 -1.94751,1.10079 z m -24.16492,-4.97734 c 0,-4.42432 0.39436,-5.97283 1.52112,-5.97283 1.12674,0 1.5211,1.54851 1.5211,5.97283 0,4.4243 -0.39436,5.97282 -1.5211,5.97282 -1.12676,0 -1.52112,-1.54852 -1.52112,-5.97282 z m 99.379352,0 c 0,-4.42432 0.39438,-5.97283 1.52112,-5.97283 1.12674,0 1.52111,1.54851 1.52111,5.97283 0,4.4243 -0.39437,5.97282 -1.52111,5.97282 -1.12674,0 -1.52112,-1.54852 -1.52112,-5.97282 z m -43.69733,-5.56726 c -2.45916,-3.354009 -3.94238,-5.711698 -3.29604,-5.239278 0.64635,0.47243 2.27053,-0.78519 3.60933,-2.794688 1.33878,-2.00948 3.48539,-4.44738 4.77021,-5.41753 2.09753,-1.58383 2.62317,-1.40387 5.14824,1.7625 3.18113,3.98909 3.07416,7.369687 -0.39237,12.400776 -4.08133,5.92332 -5.02455,5.85509 -9.83937,-0.71178 z m 5.16249,4.50034 c 0,-0.2218 -1.71124,-2.46162 -3.80278,-4.97735 l -3.80277,-4.574098 3.49467,4.977368 c 3.25276,4.63281 4.11088,5.58762 4.11088,4.57408 z m 5.07038,-14.860626 c -1.30994,-1.82502 -2.78393,-3.31823 -3.27555,-3.31823 -0.84421,0 4.31204,6.50533 5.22695,6.59453 0.23665,0.0231 -0.64148,-1.45127 -1.9514,-3.2763 z M 98.735558,106.34371 c 0,-0.22843 1.483092,-2.1696 3.295752,-4.31372 l 3.29576,-3.898379 -2.97844,4.313699 c -2.776322,4.021 -3.613072,4.92381 -3.613072,3.8984 z m 34.598232,-5.22568 c 0.39714,-4.478098 -3.56708,-13.379396 -8.34,-18.726706 -11.97849,-13.42007 -30.179442,-11.0175 -39.665042,5.23591 -2.07519,3.5558 -4.05086,8.120538 -4.39039,10.143847 -0.33952,2.02332 -1.06814,3.678769 -1.61916,3.678769 -2.55909,0 2.11826,-11.868696 7.40361,-18.786556 5.73292,-7.50364 11.99862,-10.89507 20.195402,-10.93115 11.32777,-0.0499 20.6251,7.66284 26.68017,22.13285 3.03933,7.263166 3.34868,10.239446 1.06426,10.239446 -1.05513,0 -1.50419,-1.0092 -1.32885,-2.98641 z m -42.710852,0.99547 c 0,-0.36501 0.22817,-0.66365 0.50705,-0.66365 0.27887,0 0.50703,0.29864 0.50703,0.66365 0,0.365 -0.22816,0.66365 -0.50703,0.66365 -0.27888,0 -0.50705,-0.29865 -0.50705,-0.66365 z m -37.82798,-7.627646 c 2.02555,-7.69512 2.52601,-7.9468 1.88892,-0.94995 l -0.53933,5.922997 1.49899,-5.896027 c 2.32624,-9.14988 4.21887,-10.41276 3.59611,-2.39956 -0.0993,1.27753 0.3045,2.32276 0.8973,2.32276 0.5928,0 1.07782,1.493208 1.07782,3.318238 0,3.086439 -0.34593,3.318238 -4.95176,3.318238 h -4.95177 z m 6.39166,3.645757 c 0,-0.365 -0.22816,-0.663649 -0.50703,-0.663649 -0.27888,0 -0.50705,0.298649 -0.50705,0.663649 0,0.36502 0.22817,0.66366 0.50705,0.66366 0.27887,0 0.50703,-0.29864 0.50703,-0.66366 z m 92.015202,-0.995469 c 0.30721,-1.64254 0.96499,-3.670158 1.46175,-4.505828 0.49676,-0.83567 0.83313,-2.03024 0.74753,-2.65459 -0.9815,-7.15731 1.66049,-5.26337 3.50817,2.51489 l 1.65529,6.968287 -0.55777,-5.922997 c -0.65928,-7.00116 -0.15506,-6.74506 1.87047,0.94995 l 1.48372,5.636696 h -5.36387 c -5.05197,0 -5.33137,-0.173629 -4.80529,-2.986408 z m 2.96983,-0.55303 c -0.37183,-0.48669 -0.67604,-0.0885 -0.67604,0.88485 0,0.973349 0.30421,1.371539 0.67604,0.884879 0.37182,-0.48668 0.37182,-1.283049 0,-1.769729 z M 70.617228,88.977284 c -0.68492,-4.30489 -2.05392,-9.02108 -3.04221,-10.48046 -1.4047,-2.07426 -1.46491,-2.52289 -0.2758,-2.0554 2.43351,0.95675 5.23245,9.74904 4.88054,15.33121 -0.30429,4.826858 -0.36789,4.713058 -1.56253,-2.79535 z m 20.00571,4.94588 c 0,-1.69539 3.89236,-6.40328 4.56557,-5.52214 0.27325,0.35764 -0.64222,2.05086 -2.03438,3.76268 -1.39215,1.71182 -2.53119,2.50358 -2.53119,1.75946 z m 12.307092,-4.89604 -3.301932,-4.45897 3.716052,-0.78928 c 4.58741,-0.97438 9.60318,0.24578 11.56479,2.81329 1.29507,1.69509 1.22435,1.82945 -0.57042,1.08387 -1.43543,-0.59631 -2.76436,0.14593 -4.43928,2.47947 -1.31479,1.83182 -2.67779,3.33057 -3.0289,3.33057 -0.3511,0 -2.12425,-2.00652 -3.94031,-4.45895 z m 19.12925,-0.18657 c 0,-0.36502 0.22817,-0.66365 0.50704,-0.66365 0.27886,0 0.50704,0.29863 0.50704,0.66365 0,0.365 -0.22818,0.66365 -0.50704,0.66365 -0.27887,0 -0.50704,-0.29865 -0.50704,-0.66365 z m -5.07037,-5.30919 c 0,-0.365 0.22816,-0.66365 0.50704,-0.66365 0.27886,0 0.50703,0.29865 0.50703,0.66365 0,0.36501 -0.22817,0.66365 -0.50703,0.66365 -0.27888,0 -0.50704,-0.29864 -0.50704,-0.66365 z m -2.02815,-1.32729 c 0,-0.36501 0.22817,-0.66365 0.50703,-0.66365 0.27888,0 0.50704,0.29864 0.50704,0.66365 0,0.365 -0.22816,0.66364 -0.50704,0.66364 -0.27886,0 -0.50703,-0.29864 -0.50703,-0.66364 z m -14.38719,-1.57034 c 0.73204,-0.38342 1.60668,-0.33627 1.94366,0.10484 0.33698,0.44105 -0.26198,0.75476 -1.33098,0.69712 -1.18134,-0.0636 -1.421632,-0.37821 -0.61268,-0.80191 z m -2.852102,-1.08426 c 0,-0.365 0.22817,-0.66364 0.50705,-0.66364 0.27887,0 0.50704,0.29864 0.50704,0.66364 0,0.36502 -0.22817,0.66365 -0.50704,0.66365 -0.27888,0 -0.50705,-0.29863 -0.50705,-0.66365 z m -6.59148,-13.0421 c -5.07501,-2.59928 -7.5014,-4.79208 -8.73403,-7.89321 l -1.17495,-2.956 2.4193,2.82055 c 3.55214,4.1413 6.423,5.81137 13.40518,7.79823 l 6.253432,1.77949 -4.563362,0.004 c -2.50985,0.003 -5.93235,-0.69662 -7.60557,-1.5536 z m 25.520822,-0.13329 c 6.98625,-2.09661 9.82618,-3.76066 13.47479,-7.89544 l 2.48889,-2.82055 -1.56282,3.24789 c -2.28302,4.74463 -8.51052,8.45554 -14.98539,8.92966 l -5.66885,0.41511 z m -23.319322,-2.76008 c -6.70118,-2.41046 -8.58057,-4.90554 -8.27668,-10.98809 0.33693,-6.7436 0.37354,-6.92246 1.41689,-6.92246 0.50552,0 0.6895,1.14932 0.40886,2.55404 -0.37557,1.87976 0.38573,3.19383 2.88363,4.97737 2.79287,1.99413 5.72868,2.4233 16.576952,2.4233 15.31273,0 19.29492,-1.58997 19.22711,-7.6768 -0.0583,-5.23631 2.15832,-1.71057 2.87753,4.57687 0.6926,6.05476 -0.82123,8.03827 -8.34518,10.93447 -6.61062,2.54462 -19.86526,2.60469 -26.769112,0.12124 z m 23.150372,-4.53247 c 1.67323,-0.49944 -2.63603,-0.87674 -9.5761,-0.83843 -6.940122,0.0383 -11.275312,0.44694 -9.633752,0.90808 3.956662,1.11149 15.391792,1.07003 19.209852,-0.0697 z m -23.154722,-2.31729 c -0.37182,-0.48667 -0.98027,-0.48667 -1.35209,0 -0.37183,0.48668 -0.0675,0.88487 0.67605,0.88487 0.74365,0 1.04787,-0.39819 0.67604,-0.88487 z m 28.394122,0 c -0.37184,-0.48667 -0.98028,-0.48667 -1.35211,0 -0.37182,0.48668 -0.0675,0.88487 0.67606,0.88487 0.74365,0 1.04786,-0.39819 0.67605,-0.88487 z m -9.72192,-2.43337 c -0.0436,-0.73002 -2.24721,-1.26635 -4.89689,-1.19187 -2.64968,0.0744 -6.64296,-0.17701 -8.873932,-0.55889 -3.72806,-0.63814 -3.85114,-0.78185 -1.52112,-1.77584 2.06354,-0.88031 1.85869,-0.98363 -1.10111,-0.55539 -1.99996,0.28937 -4.25783,0.0234 -5.01749,-0.59116 -1.43224,-1.15857 -0.55407,-1.84853 6.62564,-5.20563 2.76986,-1.29514 2.63709,-1.35677 -1.48305,-0.68843 -5.47134,0.88752 -5.02539,-0.112 1.05713,-2.3695 4.943992,-1.83492 14.115952,-1.57493 14.115952,0.40013 0,1.9102 -8.8724,1.53116 -9.46915,-0.40456 -0.28131,-0.91251 -0.54752,1.25111 -0.59155,4.80806 -0.069,5.56768 0.12885,6.24025 1.42198,4.83556 0.84898,-0.92221 3.27393,-1.41043 5.57743,-1.12291 3.56428,0.44489 4.06531,0.17139 3.99529,-2.18097 -0.0441,-1.47931 -0.31022,-1.94306 -0.59153,-1.03055 -0.77489,2.51356 -9.46914,2.20889 -9.46914,-0.33182 0,-1.50427 1.23942,-1.99095 5.07039,-1.99095 3.94429,0 5.07034,-0.46557 5.07034,-2.0964 0,-1.67339 0.66501,-1.90647 3.29574,-1.15511 6.01614,1.71828 7.63744,3.26659 2.53519,2.42105 l -4.81685,-0.79824 0.15194,4.46442 c 0.13667,4.01575 0.1944,4.09759 0.57439,0.81434 0.47969,-4.14449 0.44513,-4.13091 5.67447,-2.23025 4.97932,1.80976 4.37093,4.64398 -0.91918,4.28209 -3.3604,-0.22989 -3.57638,-0.0991 -1.42532,0.86317 2.45321,1.09742 2.43136,1.13837 -0.67605,1.2664 -1.76618,0.0727 -3.4414,0.87892 -3.72272,1.79143 -0.28131,0.91251 -0.54718,1.06183 -0.5908,0.33182 z"
       id="path4561"
       inkscape:highlight-color="#ffffff" /></g></svg>
